<svg width="35" height="34" viewBox="0 0 35 34" fill="none" xmlns="http://www.w3.org/2000/svg">
<g clip-path="url(#clip0_596_10157)">
<path d="M24.0707 11.9568C22.9813 10.8336 21.9486 10.0737 20.9726 9.6773C19.9967 9.28087 18.9413 9.07164 17.8065 9.04962H17.7384C15.5368 9.04962 13.5963 9.83697 11.9167 11.4117C10.2372 12.9864 9.39744 14.93 9.39744 17.2425C9.39744 19.5771 10.2769 21.4766 12.0359 22.9412C13.7949 24.4058 15.6844 25.1381 17.7043 25.1381H17.7384C19.0321 25.1381 20.2293 24.9124 21.3301 24.4609C22.4309 24.0094 23.4692 23.1009 24.4452 21.7354H16.0702V13.3113L33.8755 13.3773C34.1933 14.9851 34.3522 16.3616 34.3522 17.5068C34.3522 22.3301 32.8145 26.2613 29.7391 29.3007C26.6638 32.34 22.6068 33.8596 17.5682 33.8596C15.185 33.8596 12.9154 33.4191 10.7592 32.5382C8.60306 31.6572 6.74195 30.4679 5.1759 28.9703C3.60985 27.4727 2.36154 25.6887 1.43099 23.6185C0.500433 21.5482 0.0351562 19.3678 0.0351562 17.0774C0.0351562 14.016 0.818183 11.2025 2.38424 8.63667C3.95029 6.07087 6.07808 4.04467 8.76761 2.55805C11.4571 1.07143 14.3907 0.328125 17.5682 0.328125C20.0648 0.328125 22.4763 0.823664 24.8026 1.81474C27.129 2.80582 29.0526 4.29244 30.5732 6.2746L24.0707 11.9568ZM17.7043 15.0291V20.1167H26.6581C26.5673 20.6012 26.4084 21.1022 26.1815 21.6198C25.9545 22.1374 25.597 22.699 25.109 23.3046C24.6211 23.9103 24.0593 24.4499 23.4238 24.9234C22.7883 25.3969 21.9713 25.7878 20.9726 26.0962C19.974 26.4045 18.8845 26.5587 17.7043 26.5587C15.0035 26.5587 12.6998 25.6337 10.7933 23.7837C8.88677 21.9336 7.93352 19.7202 7.93352 17.1434C7.93352 14.5666 8.89812 12.3422 10.8273 10.4702C12.7565 8.59813 15.0489 7.66211 17.7043 7.66211C20.2236 7.66211 22.3231 8.45497 24.0026 10.0407L28.2922 6.10942C25.3871 3.46654 21.8578 2.1451 17.7043 2.1451C13.3466 2.1451 9.6244 3.60419 6.53769 6.52237C3.45097 9.44054 1.90761 12.9809 1.90761 17.1434C1.90761 21.2839 3.45097 24.8133 6.53769 27.7314C9.6244 30.6496 13.3466 32.1087 17.7043 32.1087C22.2663 32.1087 25.9318 30.7487 28.7008 28.0288C31.4697 25.3088 32.8542 21.8015 32.8542 17.5068C32.8542 16.6038 32.7861 15.7779 32.6499 15.0291H17.7043Z" fill="black"/>
</g>
<defs>
<clipPath id="clip0_596_10157">
<rect width="34.8617" height="33.8288" fill="white" transform="translate(0 0.0625)"/>
</clipPath>
</defs>
</svg>
