<svg width="35" height="34" viewBox="0 0 35 34" fill="none" xmlns="http://www.w3.org/2000/svg">
<g clip-path="url(#clip0_596_10151)">
<path d="M17.3974 0.132812C20.3025 0.132812 22.6743 0.165848 24.5127 0.23192C26.0787 0.297992 27.4746 0.56228 28.7002 1.02478C29.8804 1.46526 30.9017 2.10396 31.7642 2.94087C32.6267 3.77778 33.2849 4.76886 33.7388 5.9141C34.2154 7.1034 34.4878 8.45787 34.5559 9.97753C34.624 11.7615 34.658 14.063 34.658 16.882C34.658 19.7011 34.624 22.0026 34.5559 23.7866C34.4878 25.3062 34.2154 26.6607 33.7388 27.85C33.2849 28.9952 32.6267 29.9863 31.7642 30.8232C30.9017 31.6601 29.8804 32.2988 28.7002 32.7393C27.4746 33.2018 26.0787 33.4661 24.5127 33.5322C22.6743 33.5982 20.3025 33.6313 17.3974 33.6313C14.4922 33.6313 12.1204 33.5982 10.282 33.5322C8.71597 33.4661 7.32014 33.2018 6.09453 32.7393C4.91432 32.2988 3.89298 31.6601 3.03051 30.8232C2.16805 29.9863 1.50985 28.9952 1.05592 27.85C0.579299 26.6607 0.306942 25.3062 0.238853 23.7866C0.170763 22.0026 0.136719 19.7011 0.136719 16.882C0.136719 14.063 0.170763 11.7615 0.238853 9.97753C0.306942 8.45787 0.579299 7.1034 1.05592 5.9141C1.50985 4.76886 2.16805 3.77778 3.03051 2.94087C3.89298 2.10396 4.91432 1.46526 6.09453 1.02478C7.32014 0.56228 8.71597 0.297992 10.282 0.23192C12.1204 0.165848 14.4922 0.132812 17.3974 0.132812ZM17.3974 2.31319C14.3787 2.31319 11.9162 2.34622 10.0097 2.41229C8.78406 2.45634 7.64924 2.66557 6.6052 3.03998C4.97106 3.7007 3.81354 4.82392 3.13265 6.40964C2.74681 7.42275 2.53119 8.52394 2.4858 9.71324C2.41771 11.5633 2.38367 13.9529 2.38367 16.882C2.38367 19.8112 2.41771 22.2008 2.4858 24.0508C2.53119 25.2401 2.74681 26.3413 3.13265 27.3544C3.81354 28.9402 4.97106 30.0634 6.6052 30.7241C7.64924 31.0985 8.78406 31.3077 10.0097 31.3518C11.9162 31.4179 14.3787 31.4509 17.3974 31.4509C20.416 31.4509 22.8785 31.4179 24.785 31.3518C26.0107 31.3077 27.1455 31.0985 28.1895 30.7241C29.8237 30.0634 30.9812 28.9402 31.6621 27.3544C32.0479 26.3413 32.2635 25.2401 32.3089 24.0508C32.377 22.2008 32.4111 19.8112 32.4111 16.882C32.4111 13.9529 32.377 11.5633 32.3089 9.71324C32.2635 8.52394 32.0479 7.42275 31.6621 6.40964C30.9812 4.82392 29.8237 3.7007 28.1895 3.03998C27.1455 2.66557 26.0107 2.45634 24.785 2.41229C22.8785 2.34622 20.416 2.31319 17.3974 2.31319ZM17.3974 23.5883C19.3039 23.5883 20.9323 22.9331 22.2828 21.6227C23.6332 20.3123 24.3084 18.7321 24.3084 16.882C24.3084 15.032 23.6332 13.4518 22.2828 12.1414C20.9323 10.831 19.3039 10.1757 17.3974 10.1757C15.4909 10.1757 13.8624 10.831 12.512 12.1414C11.1615 13.4518 10.4863 15.032 10.4863 16.882C10.4863 18.7321 11.1615 20.3123 12.512 21.6227C13.8624 22.9331 15.4909 23.5883 17.3974 23.5883ZM17.3974 8.29269C19.8486 8.29269 21.9366 9.1296 23.6616 10.8034C25.3865 12.4772 26.249 14.5035 26.249 16.882C26.249 19.2606 25.3865 21.2868 23.6616 22.9607C21.9366 24.6345 19.8486 25.4714 17.3974 25.4714C14.9461 25.4714 12.8581 24.6345 11.1331 22.9607C9.40821 21.2868 8.54575 19.2606 8.54575 16.882C8.54575 14.5035 9.40821 12.4772 11.1331 10.8034C12.8581 9.1296 14.9461 8.29269 17.3974 8.29269ZM28.7002 7.96233C28.7002 8.51293 28.4959 8.98094 28.0874 9.36636C27.6788 9.75178 27.1795 9.94449 26.5894 9.94449C26.022 9.94449 25.5397 9.75178 25.1425 9.36636C24.7453 8.98094 24.5467 8.51293 24.5467 7.96233C24.5467 7.38971 24.7453 6.90518 25.1425 6.50875C25.5397 6.11232 26.022 5.9141 26.5894 5.9141C27.1568 5.9141 27.6505 6.11783 28.0704 6.52527C28.4902 6.93271 28.7002 7.41173 28.7002 7.96233Z" fill="black"/>
</g>
<defs>
<clipPath id="clip0_596_10151">
<rect width="34.8617" height="33.8288" fill="white"/>
</clipPath>
</defs>
</svg>
