<svg width="115" height="45" viewBox="0 0 115 45" fill="none" xmlns="http://www.w3.org/2000/svg">
<path d="M20.303 0C19.1374 0 19.0293 0.204499 18.3437 1.07449C17.6752 1.94448 17.7481 3.75382 18.1584 5.52728C24.6248 33.4727 8.89432 31.733 14.6844 30.1989C19.5066 28.9213 14.8346 37.1203 11.4581 37.1203C10.1897 37.1203 9.2127 36.8013 8.5271 36.1633C7.84149 35.5253 7.353 34.7613 7.06162 33.872C6.77024 32.9827 6.4795 31.7937 6.18812 30.305C5.91387 28.913 5.51933 27.888 5.00513 27.2307C4.49093 26.5734 8.83741 27.7053 7.82614 27.7053C6.7806 27.7053 5.88438 29.2575 5.05046 29.6996C2.92729 30.8251 3.29846 30.0669 3.29846 31.4202C3.29846 32.6962 2.51588 32.9635 2.85868 34.3748C3.20148 35.7861 0.445866 37.1099 0.994353 38.1926C2.03989 40.2226 3.6839 42.6146 5.38077 43.5233C7.09477 44.4319 8.95624 43.9639 11.5101 43.9639C14.3382 43.9639 16.7372 43.3159 18.7083 42.0205C20.6794 40.7059 22.0935 38.8789 22.9505 36.5396C23.4647 35.1476 23.791 33.7757 23.9281 32.4224C24.0824 31.069 24.4753 29.3919 24.1595 27.4917C22.8178 19.4184 18.6767 9.53318 22.1376 4.10015C23.0377 2.6871 23.8075 2.17498 23.1047 1.30499C22.4191 0.434995 21.4856 0 20.303 0ZM44.0071 11.7166C41.2475 11.7166 38.9425 12.1416 37.0914 12.9922C35.2402 13.8429 33.8776 14.9259 33.0035 16.2405C32.1293 17.5552 31.6922 18.9082 31.6922 20.3001C31.6922 21.1895 31.975 21.9245 32.5407 22.5045C33.1234 23.0651 33.8087 23.3451 34.5972 23.3451C35.4713 23.3451 36.0369 23.1711 36.294 22.8231C36.5683 22.4558 37.0231 21.7118 37.6573 20.5905C38.3086 19.4692 39.0799 18.6282 39.9712 18.0675C40.8796 17.5069 42.2245 17.2258 44.0071 17.2258C46.081 17.2258 47.4436 17.7188 48.095 18.7048C48.7634 19.6715 49.1412 21.1995 49.2269 23.2875C47.7528 23.7708 46.3813 24.1857 45.1129 24.5337C43.8617 24.8624 42.3537 25.2304 40.5883 25.6364C38.8228 26.0424 37.7173 26.3034 37.2717 26.4194C35.1463 26.9414 33.4751 27.9654 32.2582 29.4927C31.0412 31.02 30.4321 32.867 30.4321 35.0323C30.4321 36.637 30.8009 38.1249 31.538 39.4976C32.275 40.8702 33.3202 41.9633 34.6743 42.7753C36.0455 43.5679 37.6316 43.9639 39.4313 43.9639C41.4024 43.9639 43.1764 43.5969 44.7533 42.8623C46.3473 42.1083 47.9928 40.9862 49.6896 39.4976C50.4781 40.9476 51.2237 42.0596 51.9264 42.8329C52.6292 43.5869 53.3402 43.9639 54.06 43.9639C54.917 43.9639 55.6795 43.6349 56.3479 42.9775C57.0335 42.3009 57.3766 41.5569 57.3766 40.7449C57.3766 40.2809 57.1541 39.247 56.7085 37.6423C56.28 36.0183 56.0654 34.4613 56.0654 32.9726C56.0826 31.3873 56.0914 29.9474 56.0914 28.6521C56.1086 27.3567 56.1165 25.7807 56.1165 23.9247C56.1165 20.9861 55.7487 18.6282 55.0116 16.8495C54.2918 15.0709 53.0488 13.7748 51.2833 12.9629C49.5179 12.1315 47.0923 11.7166 44.0071 11.7166ZM64.2923 12.4702C63.2639 12.4702 62.4669 12.7413 61.9013 13.2826C61.3528 13.8239 61.0789 14.5489 61.0789 15.4576C61.0789 16.6949 61.4477 17.4578 62.1848 17.7478C62.9218 18.0378 64.0095 18.1828 65.4493 18.1828H75.8879C75.4594 18.8595 74.8849 19.6715 74.165 20.6188C73.4623 21.5661 72.5713 22.7261 71.4915 24.0987C70.4117 25.4521 69.2379 26.9121 67.9695 28.4781C66.7183 30.044 65.3211 31.794 63.7785 33.7274C62.3216 35.564 61.3614 36.83 60.8986 37.526C60.4358 38.2026 60.2044 38.8796 60.2044 39.5563C60.2044 40.6969 60.5307 41.5959 61.1821 42.2533C61.8505 42.9106 62.8532 43.2385 64.1901 43.2385H83.2153C84.3465 43.2385 85.1861 42.9586 85.7346 42.3979C86.3002 41.8372 86.583 41.1123 86.583 40.2229C86.583 39.2949 86.3002 38.5409 85.7346 37.9609C85.169 37.3616 84.3294 37.0616 83.2153 37.0616H69.4601L82.3158 20.8515C82.7957 20.2715 83.1982 19.7785 83.5238 19.3725C83.8495 18.9472 84.1066 18.5892 84.2951 18.2992C84.4837 18.0092 84.6548 17.6422 84.809 17.1975C84.9633 16.7335 85.0404 16.2885 85.0404 15.8632C85.0404 14.5872 84.6379 13.7072 83.8324 13.2239C83.0439 12.7212 81.9038 12.4702 80.4126 12.4702H64.2923ZM91.7257 12.4702C90.6973 12.4702 89.9003 12.7413 89.3346 13.2826C88.7862 13.8239 88.5113 14.5489 88.5113 15.4576C88.5113 16.6949 88.8801 17.4578 89.6171 17.7478C90.3541 18.0378 91.4429 18.1828 92.8826 18.1828H103.32C102.892 18.8595 102.318 19.6715 101.598 20.6188C100.896 21.5661 100.004 22.7261 98.9239 24.0987C97.844 25.4521 96.6703 26.9121 95.4019 28.4781C94.1507 30.044 92.7534 31.794 91.2108 33.7274C89.7539 35.564 88.7947 36.83 88.3319 37.526C87.8692 38.2026 87.6378 38.8796 87.6378 39.5563C87.6378 40.6969 87.9631 41.5959 88.6144 42.2533C89.2829 42.9106 90.2856 43.2385 91.6225 43.2385H110.648C111.779 43.2385 112.619 42.9586 113.168 42.3979C113.734 41.8372 114.016 41.1123 114.016 40.2229C114.016 39.2949 113.734 38.5409 113.168 37.9609C112.602 37.3616 111.762 37.0616 110.648 37.0616H96.8934L109.748 20.8515C110.228 20.2715 110.631 19.7785 110.956 19.3725C111.282 18.9472 111.539 18.5892 111.728 18.2992C111.916 18.0092 112.088 17.6422 112.242 17.1975C112.397 16.7335 112.474 16.2885 112.474 15.8632C112.474 14.5872 112.07 13.7072 111.265 13.2239C110.476 12.7212 109.337 12.4702 107.846 12.4702H91.7257ZM49.2269 28.0431V29.174C49.2269 31.9193 48.9094 33.8913 48.2753 35.09C47.7268 36.1726 46.8615 37.0616 45.6789 37.7576C44.5133 38.4342 43.2358 38.7733 41.8474 38.7733C40.5448 38.7733 39.4907 38.3573 38.6851 37.526C37.8795 36.6753 37.477 35.6503 37.477 34.4516C37.477 33.2916 37.8201 32.3926 38.5057 31.7547C39.1913 31.0973 39.9112 30.6623 40.6654 30.4497C41.4196 30.2177 42.7733 29.8697 44.7273 29.4057C46.6984 28.9223 48.1985 28.4684 49.2269 28.0431Z" fill="black"/>
<path d="M10.323 25.1061C9.20503 25.2561 8.10914 25.5476 7.07071 25.9713C4.31556 27.0956 2.11334 29.0883 0.933563 31.5245C-0.246209 33.9607 -0.310193 36.6477 0.755251 39.0126C1.82073 41.3777 3.9315 43.2335 6.63749 44.1844C9.34348 45.1352 12.4306 45.1058 15.2405 44.1025L16.3229 43.66C19.0161 42.4173 21.1041 40.3347 22.1419 37.8562C23.1797 35.3777 23.0851 32.6993 21.8784 30.3922C20.9056 28.5327 19.2656 27.0212 17.1913 26.0723C15.117 25.1234 12.7138 24.7853 10.3231 25.1061H10.323Z" fill="black"/>
<path d="M20.3203 2.6099C21.8847 1.64366 25.6611 -0.231381 28.4896 4.6899C35.0054 5.47861 38.2844 7.5255 25.6888 18.0661" stroke="black" stroke-width="2.765" stroke-linecap="round"/>
</svg>
