<svg width="47" height="34" viewBox="0 0 47 34" fill="none" xmlns="http://www.w3.org/2000/svg">
<g clip-path="url(#clip0_596_10153)">
<path d="M0.589844 6.94875C0.589844 5.66507 1.46744 4.97288 3.22263 4.8722L9.98617 4.90996C10.4401 4.90996 10.7427 5.09874 10.894 5.47629C11.5901 7.36406 12.3693 8.99383 13.2318 10.3656C14.0942 11.7374 15.2215 13.3168 16.6135 15.1039C16.7346 15.3304 16.9313 15.4437 17.2036 15.4437C17.4155 15.4437 17.5819 15.3556 17.703 15.1794L17.8391 14.7641L17.8845 8.23243C17.8845 7.77937 17.7559 7.47732 17.4987 7.3263C17.2415 7.17528 16.7648 7.06202 16.0688 6.9865C15.5241 6.91099 15.2517 6.63412 15.2517 6.15589C15.2517 6.05521 15.2669 5.97969 15.2971 5.92935C15.9326 4.29329 17.7484 3.47526 20.7443 3.47526L23.2863 3.4375C24.4362 3.4375 25.3895 3.67662 26.146 4.15485C26.9026 4.63309 27.2809 5.38819 27.2809 6.42017V14.9906C27.4927 15.1165 27.6894 15.1794 27.871 15.1794C28.3249 15.1794 28.7183 14.9529 29.0512 14.4998C32.38 10.6236 34.1806 8.03107 34.4529 6.72222C34.4529 6.69705 34.4832 6.63412 34.5437 6.53344C34.7556 6.15589 35.1036 5.82867 35.5878 5.5518C36.0719 5.27493 36.4956 5.08615 36.8588 4.98547C36.9798 4.93513 37.116 4.90996 37.2673 4.90996H44.3032L44.7571 4.94771C45.3624 4.94771 45.8314 5.18683 46.1643 5.66507C46.2853 5.81609 46.3686 5.97969 46.414 6.15589C46.4593 6.33208 46.4896 6.50827 46.5047 6.68446C46.5199 6.86065 46.5274 6.96133 46.5274 6.9865V7.25079C46.3156 8.28277 45.7785 9.38397 44.916 10.5544C44.0535 11.7248 42.9565 12.9896 41.625 14.3488C40.2935 15.708 39.4613 16.6015 39.1284 17.0294C38.856 17.3315 38.7199 17.6083 38.7199 17.8601C38.7199 18.0614 38.8409 18.2879 39.083 18.5396L45.7104 25.4866C46.0735 25.8894 46.2551 26.3298 46.2551 26.8081C46.2551 27.387 45.9827 27.8652 45.438 28.2428C44.8933 28.6203 44.2427 28.8343 43.4861 28.8846L42.7144 28.9224H35.8147C35.7845 28.9224 35.7239 28.9287 35.6331 28.9412C35.5424 28.9538 35.4818 28.9601 35.4516 28.9601C34.7858 28.9601 34.1654 28.721 33.5905 28.2428C33.3786 28.0414 31.9563 26.5564 29.3235 23.7876C29.1722 23.6115 28.9604 23.4478 28.688 23.2968C28.567 23.6995 28.4081 24.2785 28.2114 25.0336C28.0147 25.7887 27.871 26.3298 27.7802 26.6571L27.644 27.2989C27.3414 28.1798 26.7059 28.7084 25.7375 28.8846L25.102 28.9224H20.6535C18.1418 28.9224 15.6376 27.9659 13.141 26.053C10.6444 24.14 8.39742 21.667 6.40013 18.634C4.40285 15.601 2.54174 12.0709 0.816808 8.04365C0.665499 7.71644 0.589844 7.35147 0.589844 6.94875ZM27.871 16.7274C27.2355 16.7274 26.6605 16.5827 26.146 16.2932C25.6316 16.0037 25.3744 15.6073 25.3744 15.1039V6.42017C25.3744 5.91677 25.223 5.55809 24.9204 5.34415C24.6178 5.1302 24.0882 5.02323 23.3317 5.02323L20.7443 5.09874C19.443 5.09874 18.4595 5.28751 17.7937 5.66507C19.1253 6.19364 19.791 7.04943 19.791 8.23243V14.8774C19.7305 15.5066 19.4279 16.0289 18.8832 16.4442C18.3385 16.8595 17.7332 17.0672 17.0675 17.0672C16.1596 17.0672 15.4636 16.7022 14.9794 15.9723C12.619 13.0022 10.8638 10.1831 9.71381 7.51508L9.30528 6.53344L3.26802 6.49568C2.87462 6.49568 2.65522 6.51456 2.60983 6.55232C2.56443 6.59007 2.54174 6.69705 2.54174 6.87324C2.54174 7.09977 2.572 7.33889 2.63252 7.59059L3.58577 9.70489C6.12777 15.1668 8.88918 19.4709 11.87 22.6172C14.8508 25.7635 17.7786 27.3366 20.6535 27.3366H25.1928C25.3744 27.3366 25.5105 27.2926 25.6013 27.2045C25.6921 27.1164 25.7678 26.9465 25.8283 26.6948L25.9191 26.3173L26.7815 22.9948C27.0236 22.5417 27.2355 22.2397 27.417 22.0887C27.7499 21.8118 28.1433 21.6733 28.5972 21.6733C29.3235 21.6733 30.065 22.0383 30.8215 22.7682L34.6799 26.8458C34.922 27.173 35.1792 27.3366 35.4516 27.3366H42.9414C43.8493 27.3366 44.3032 27.1479 44.3032 26.7703C44.3032 26.6445 44.2578 26.5186 44.167 26.3928L37.585 19.559C37.0706 19.0305 36.8134 18.4641 36.8134 17.8601C36.8134 17.256 37.0555 16.677 37.5396 16.1233C37.9331 15.6199 38.6972 14.783 39.832 13.6126C40.9668 12.4422 41.9579 11.3472 42.8052 10.3279C43.6526 9.30846 44.2124 8.38345 44.4848 7.55283L44.6209 7.06202C44.5907 7.01167 44.5755 6.92987 44.5755 6.81661C44.5755 6.70334 44.5604 6.60895 44.5302 6.53344H37.4035C36.9495 6.68446 36.5864 6.91099 36.314 7.21304L36.0417 7.93039C35.2851 9.66714 33.303 12.3478 30.0952 15.9723C29.4597 16.4757 28.7183 16.7274 27.871 16.7274Z" fill="black"/>
</g>
<defs>
<clipPath id="clip0_596_10153">
<rect width="46.4823" height="33.8288" fill="white" transform="translate(0.453125)"/>
</clipPath>
</defs>
</svg>
