<svg width="47" height="34" viewBox="0 0 47 34" fill="none" xmlns="http://www.w3.org/2000/svg">
<path d="M42.644 4.82138C42.2625 4.59485 41.749 4.39348 41.1034 4.21729C40.4578 4.0411 39.4748 3.85862 38.1543 3.66984C36.8337 3.48106 34.9483 3.33004 32.498 3.21677C30.0477 3.10351 27.1352 3.04688 23.7606 3.04688C13.5486 3.04688 7.45949 3.56287 5.49339 4.59485C3.17514 5.77785 1.78126 9.26393 1.31174 15.0531C1.25305 15.8082 1.20903 16.5255 1.17969 17.2051C1.20903 18.0609 1.27506 18.9608 1.37777 19.9047C1.48047 20.8485 1.66388 22.0064 1.92798 23.3781C2.19209 24.7499 2.63226 25.9833 3.2485 27.0782C3.86475 28.1731 4.59837 28.9471 5.44937 29.4001C7.41548 30.4069 13.5192 30.9103 23.7606 30.9103C34.4421 30.9103 40.7366 30.3314 42.644 29.1736C43.407 28.6954 44.0526 27.9403 44.5808 26.9083C45.109 25.8763 45.4905 24.7185 45.7252 23.4348C45.96 22.1511 46.1141 21.0247 46.1874 20.0557C46.2608 19.0866 46.3121 18.1239 46.3415 17.1674C46.3121 16.3116 46.2608 15.4118 46.1874 14.4679C46.1141 13.524 45.9673 12.3599 45.7472 10.9755C45.5272 9.59114 45.153 8.33892 44.6248 7.21884C44.0966 6.09877 43.4363 5.29961 42.644 4.82138ZM40.9714 27.2103C40.7073 27.3613 40.2084 27.5187 39.4748 27.6823C38.7411 27.8459 36.9878 28.0221 34.2147 28.2108C31.4416 28.3996 27.9569 28.494 23.7606 28.494C19.6816 28.494 16.2923 28.4059 13.5926 28.2297C10.8928 28.0535 9.17617 27.8962 8.44255 27.7578C7.70893 27.6193 7.19539 27.4746 6.90194 27.3236C6.16832 26.946 5.5154 25.8385 4.94317 24.0011C4.37094 22.1637 4.05549 19.8984 3.9968 17.2051C4.05549 14.4868 4.37828 12.1396 4.96518 10.1638C5.55208 8.1879 6.21234 7.01119 6.94596 6.63364C7.21006 6.50778 7.70893 6.36935 8.44255 6.21833C9.17617 6.06731 10.8928 5.9037 13.5926 5.72751C16.2923 5.55132 19.6816 5.46322 23.7606 5.46322C27.9569 5.46322 31.4416 5.55761 34.2147 5.74638C36.9878 5.93516 38.7411 6.11135 39.4748 6.27496C40.2084 6.43857 40.7073 6.60847 40.9714 6.78466C41.2942 6.96085 41.6023 7.3384 41.8957 7.91732C42.1892 8.49623 42.4533 9.21988 42.688 10.0883C42.9228 10.9566 43.1135 12.0075 43.2603 13.2408C43.407 14.4742 43.495 15.783 43.5244 17.1674C43.495 19.8858 43.2309 22.1322 42.7321 23.9067C42.2332 25.6812 41.6463 26.7824 40.9714 27.2103ZM32.9162 16.0347L20.2392 9.35202C19.7697 9.10032 19.3002 9.09403 18.8306 9.33315C18.3611 9.57226 18.1264 9.93094 18.1264 10.4092V23.7368C18.1264 24.2151 18.3611 24.5674 18.8306 24.794C19.0654 24.8947 19.3002 24.945 19.5349 24.945C19.6523 24.945 19.777 24.9324 19.9091 24.9072C20.0411 24.8821 20.1512 24.8317 20.2392 24.7562L32.9162 18.1113C33.3857 17.8596 33.6205 17.5072 33.6205 17.0541C33.5911 16.6011 33.3564 16.2613 32.9162 16.0347ZM20.9435 21.5848V12.5235L29.4828 17.0541L20.9435 21.5848Z" fill="black"/>
</svg>
